<?xml version='1.0' encoding='utf-8'?>
<svg
  height='800'
  xmlns='http://www.w3.org/2000/svg'
  version='1.1'
  xmlns:xlink='http://www.w3.org/1999/xlink'
  xmlns:svgjs='http://svgjs.dev/svgjs'
  viewBox='0 0 800 800'
  width='800'
  >
  <defs>
    <filter id='gouda'
      x='-20%'
      y='-20%'
      width='140%'
      height='140%'
      filterUnits='objectBoundingBox'
      primitiveUnits='userSpaceOnUse'
      color-interpolation-filters='linearRGB'
      >
      <feTurbulence type='fractalNoise'
        baseFrequency='0.09'
        numOctaves='4'
        seed='15'
        stitchTiles='stitch'
        x='0%'
        y='0%'
        width='100%'
        height='100%'
        result='turbulence'
        />
      
      <feSpecularLighting surfaceScale='17'
        specularConstant='0.8'
        specularExponent='20'
        lighting-color="#E2C376"
        x='0%'
        y='0%'
        width='100%'
        height='100%'
        in='turbulence'
        result='specularLighting'
        >
        <feDistantLight
          azimuth='3'
          elevation='97'
          />
      </feSpecularLighting>
    </filter>
    <linearGradient id='hamon'
      gradientTransform='rotate(270)'
      x1='50%'
      y1='0%'
      x2='50%'
      y2='100%'
      >
      <stop
        stop-color='hsl(206, 75%, 49%)'
        stop-opacity='1'
        offset='0%'
        />
      <stop
        stop-color='hsl(331, 90%, 56%)'
        stop-opacity='1'
        offset='100%'
        />
    </linearGradient>
    <path id='squiggly'
      fill='none'
      d="
        M10,10
        C22,16,41,42,67,38
        C92,34,106,-6,133,-9
        C161,-12,172,27,200,23
        C278,19,239,-26,267,-26
        C294,-26,306,22,333,25
        C362,28,373,-16,400,-10
        C428,-4,439,50,467,53
        C494,56,506,8,534,4
        C561,0,572,36,600,34
        C628,32,639,-12,667,-6
        C694,0,708,58,733,61
        C759,64,778,21,790,10
      "
      stroke='url(#hamon)'
      stroke-linecap='round'
      stroke-linejoin='round'
      stroke-width='2'
      />
  </defs>
  <g id='cheese'>
    <rect
      width='100%'
      height='100%'
      fill="#F2892C"
      />
    <rect
      width='100%'
      height='100%'
      fill="#E2C376"
      filter='url(#gouda)'
      />
  </g>
  <g id='slicer'
    transform='translate(560, 560) scale(1.5) rotate(135, 135, 0)'
    >
		<path id='slicer-outline'
			
			d="
				M331.941,243.502
				l-69.302-225.23
				C259.224,7.172,249.514,0,237.9,0
				s-21.324,7.172-24.739,18.272
				l-69.302,225.23
				c-1.705,5.54-0.868,11.502,2.296,16.358
				c3.164,4.856,8.279,8.031,14.035,8.71
				l55.858,6.593
				c2.343,0.277,4.075,2.338,3.943,4.694
				l-9.333,166.697
				c-0.399,7.515,2.299,14.992,7.403,20.515
				c5.025,5.437,11.817,8.534,19.125,8.722
				c0.238,0.006,0.476,0.009,0.713,0.009
				c0,0,0,0,0,0
				c7.568,0,14.605-3.025,19.813-8.517
				c5.208-5.492,7.856-12.68,7.453-20.259
				l-9.358-167.167
				c-0.132-2.355,1.6-4.417,3.944-4.694
				l55.857-6.593
				c5.756-0.679,10.871-3.854,14.035-8.71
				C332.808,255.004,333.645,249.042,331.941,243.502z
			"
			fill='rgb(51, 93, 96, 0.8)'
			/>
		<path id='slicer-handle-inner'
			d="
				M246.83,456.963
				c-2.347,2.475-5.518,3.838-8.929,3.838
				l-0.329-0.004
				c-3.225-0.083-6.242-1.47-8.494-3.908
				c-2.372-2.566-3.625-6.042-3.441-9.516
				l9.332-166.676
				c0.045-0.802,0.015-1.59-0.042-2.372
				l5.939-0.188
				c-0.074,0.883-0.085,1.651-0.034,2.56
				l9.357,167.146
				C250.37,451.248,249.177,454.487,246.83,456.963z
			"
			fill="#704214"
			/>
		<path id='slicer-pan-inner'
			d="
				M317.077,251.673
				c-0.427,0.655-1.414,1.787-3.225,2.001
				l-75.649,9.297
				c-0.462-0.153-76.253-9.297-76.253-9.297
				c-1.811-0.214-2.797-1.346-3.225-2.001
				c-0.427-0.656-1.064-2.016-0.527-3.759
				l69.302-225.23
				C229.241,17.018,234.015,15,237.9,15
				s8.659,2.018,10.402,7.683
				l69.302,225.231
				C318.141,249.656,317.504,251.017,317.077,251.673z
			"
			fill="lightgray"
			/>
		<mask id='pan-mask'>
			<use fill='white' xlink:href='#slicer-pan-inner' />
		</mask>
		<g id='slicer-pattern'
			mask='url(#pan-mask)'
			>
			<use xlink:href='#squiggly' />
			<use transform='matrix(1, 0, 0, 1, 0, 5)' xlink:href='#squiggly' />
			<use transform='matrix(1, 0, 0, 1.1, 0, 15)' xlink:href='#squiggly' />
			<use transform='matrix(1, 0, 0, 1.2, 0, 25)' xlink:href='#squiggly' />
			<use transform='matrix(1, 0, 0, 1.3, 0, 35)' xlink:href='#squiggly' />
			<use transform='matrix(1, 0, 0, 1.4, 0, 45)' xlink:href='#squiggly' />
			<use transform='matrix(1, 0, 0, 1.5, 0, 55)' xlink:href='#squiggly' />
			<use transform='matrix(1, 0, 0, 1.6, 0, 65)' xlink:href='#squiggly' />
			<use transform='matrix(1, 0, 0, 1.7, 0, 75)' xlink:href='#squiggly' />
			<use transform='matrix(1, 0, 0, 1.6, 0, 85)' xlink:href='#squiggly' />
			<use transform='matrix(1, 0, 0, 1.5, 0, 95)' xlink:href='#squiggly' />
			<use transform='matrix(1, 0, 0, 1.4, 0, 105)' xlink:href='#squiggly' />
			<use transform='matrix(1, 0, 0, 1.3, 0, 115)' xlink:href='#squiggly' />
			<use transform='matrix(1, 0, 0, 1.2, 0, 125)' xlink:href='#squiggly' />
			<use transform='matrix(1, 0, 0, 1.1, 0, 135)' xlink:href='#squiggly' />
			<use transform='matrix(1, 0, 0, 1, 0, 145)' xlink:href='#squiggly' />
			<use transform='matrix(1, 0, 0, 1.2, 0, 155)' xlink:href='#squiggly' />
			<use transform='matrix(1, 0, 0, 1.3, 0, 165)' xlink:href='#squiggly' />
			<use transform='matrix(1, 0, 0, 1.4, 0, 175)' xlink:href='#squiggly' />
			<use transform='matrix(1, 0, 0, 1.5, 0, 185)' xlink:href='#squiggly' />
			<use transform='matrix(1, 0, 0, 1.6, 0, 195)' xlink:href='#squiggly' />
			<use transform='matrix(1, 0, 0, 1.7, 0, 205)' xlink:href='#squiggly' />
			<use transform='matrix(1, 0, 0, 1.6, 0, 215)' xlink:href='#squiggly' />
			<use transform='matrix(1, 0, 0, 1.5, 0, 220)' xlink:href='#squiggly' />
			<use transform='matrix(1, 0, 0, 1.4, 0, 235)' xlink:href='#squiggly' />
			<use transform='matrix(1, 0, 0, 1.3, 0, 240)' xlink:href='#squiggly' />
			<use transform='matrix(1, 0, 0, 1.2, 0, 255)' xlink:href='#squiggly' />
			<use transform='matrix(1, 0, 0, 1, 0, 265)' xlink:href='#squiggly' />
			<use transform='matrix(1, 0, 0, 1.1, 0, 275)' xlink:href='#squiggly' />
		</g>
		<path id='glare-big'
			d="
				M285.444,178.195
				L248.265,53.918
				c-1.188-3.968-5.368-6.222-9.335-5.036
				c-3.969,1.187-6.223,5.366-5.036,9.335
				l37.179,124.276
				c0.973,3.252,3.954,5.353,7.183,5.353
				c0.711,0,1.436-0.102,2.152-0.316
				C284.377,186.342,286.631,182.163,285.444,178.195z
			"
			fill="#7BC3B4"
			/>
		<path id='glare-small'
			d="
				M293.38,203.985
				c-1.218-3.958-5.413-6.181-9.375-4.962
				c-3.959,1.218-6.181,5.416-4.962,9.375
				l3.486,11.328
				c0.992,3.224,3.96,5.296,7.166,5.296
				c0.73,0,1.474-0.107,2.208-0.333
				c3.959-1.218,6.181-5.416,4.962-9.375
				L293.38,203.985z
			"
			fill="#7BC3B4"
			/>
	</g>
</svg>